<svg width="800" height="600" viewBox="0 0 800 600" fill="none" xmlns="http://www.w3.org/2000/svg">
  <rect width="800" height="600" rx="40" fill="#FFEAF0"/>
  <path d="M646 183.5C598.667 136.333 533.5 112.5 462.5 125C384 138.667 323.083 197.833 299.5 259.5C277.833 314.167 283 372.667 326.5 410C366.5 444.5 428 448.167 493.5 430.5C556.167 413.333 612.833 358.167 639.5 295.5C662.167 242.167 657.5 209 646 183.5Z" fill="#F4BBCF"/>
  <path d="M254.5 371.5C236.333 338.333 226 298.5 239 267.5C253.167 232.167 285.333 205 317 189.5C346.333 175.667 378.5 171.667 412.5 176.5C441.333 180.667 466.833 193.333 488.5 211.5C503.833 223.833 517.167 238.667 526.5 256.5C540.5 282.5 543.5 310.833 536.833 340.5C528.333 377.5 501 400.833 467.5 413.5C445.833 422.667 421.833 427.833 396.5 429.5C364.333 431.667 328.333 421.333 303.5 396.5C283.833 376.5 266.667 349.833 254.5 371.5Z" fill="#F9D8E4"/>
  <path d="M520 84C516.5 96.3333 503.333 173.5 375 243.5C246.667 313.5 173.5 336.167 141 316C108.5 295.833 113.5 226.5 179 163.5C244.5 100.5 439.5 48 520 84Z" fill="#FFF1F7"/>
  <path d="M298 222C301.333 207.333 327.5 178.667 367 166C411.5 152.667 478.5 166.5 538 220.5C603 279.5 613.167 368.5 571.5 426C530.5 481 431.5 521.333 322.5 489.5C225.5 461.5 207.5 382 220 324.5C228.333 286 261.5 252.5 298 222Z" fill="#FFDFE7"/>
  <circle cx="240" cy="188" r="18" fill="#D16A94"/>
  <circle cx="560" cy="146" r="10" fill="#D16A94"/>
  <circle cx="510" cy="520" r="10" fill="#D16A94"/>
</svg>